<?xml version="1.0" standalone="no"?>
<!DOCTYPE svg PUBLIC "-//W3C//DTD SVG 20010904//EN"
 "http://www.w3.org/TR/2001/REC-SVG-20010904/DTD/svg10.dtd">
<svg version="1.0" xmlns="http://www.w3.org/2000/svg"
 width="512.000000pt" height="512.000000pt" viewBox="0 0 512.000000 512.000000"
 preserveAspectRatio="xMidYMid meet">
<metadata>
Created by potrace 1.14, written by Peter Selinger 2001-2017
</metadata>
<g transform="translate(0.000000,512.000000) scale(0.100000,-0.100000)"
fill="#000000" stroke="none">
<path d="M2228 5115 c-1 -2 -34 -6 -73 -9 -38 -3 -79 -8 -90 -10 -11 -2 -41
-6 -66 -10 -315 -46 -646 -175 -904 -355 -250 -173 -505 -440 -692 -723 -65
-99 -183 -324 -183 -350 0 -8 -4 -18 -9 -23 -15 -17 -59 -167 -79 -276 -54
-284 -46 -478 42 -972 16 -89 19 -107 32 -212 12 -107 6 -446 -11 -533 -1 -9
-6 -39 -9 -67 -4 -27 -11 -68 -16 -90 -5 -22 -11 -53 -14 -70 -3 -16 -14 -59
-24 -95 -43 -149 14 -198 189 -165 51 10 147 66 190 112 70 74 91 130 114 308
24 175 74 290 151 339 54 36 115 67 123 62 4 -3 11 -34 14 -68 7 -67 10 -86
28 -161 15 -62 66 -115 121 -124 37 -5 41 -9 82 -92 60 -119 78 -184 79 -286
1 -112 -58 -271 -130 -350 -93 -102 -121 -168 -94 -219 20 -36 42 -44 203 -77
308 -62 563 -40 821 71 51 22 98 40 106 40 7 0 83 -40 170 -89 430 -244 663
-349 996 -451 157 -48 467 -121 615 -146 14 -3 31 -7 38 -9 8 -3 35 -8 62 -11
43 -5 51 -3 81 24 l34 30 1 269 0 268 -30 31 c-17 17 -125 111 -241 209 -230
195 -224 190 -276 255 -66 81 -111 194 -124 305 -4 27 -9 52 -11 55 -3 3 -148
5 -322 5 -174 0 -323 4 -330 9 -23 14 2 121 46 191 56 89 158 158 258 173 27
4 153 7 280 7 219 -1 233 -2 275 -24 102 -53 152 -133 163 -263 13 -154 57
-227 221 -365 94 -80 87 -131 82 590 -2 347 -7 643 -10 657 -3 14 -8 47 -12
74 -17 125 -69 286 -140 431 -48 98 -54 119 -58 190 -6 92 -35 169 -87 229
l-34 38 60 57 c161 154 312 254 501 334 101 43 279 98 354 111 19 3 45 8 59
11 14 3 45 7 70 10 25 3 67 8 94 11 68 9 106 46 106 104 0 36 -6 47 -43 83
-150 144 -406 335 -627 468 -324 195 -655 326 -1120 444 -3 0 -21 4 -40 8 -19
4 -46 9 -60 12 -75 15 -253 45 -305 51 -33 3 -73 8 -90 11 -35 5 -501 13 -507
8z"/>
</g>
</svg>
